<svg xmlns="http://www.w3.org/2000/svg" width="24.5" height="26" viewBox="0 0 24.5 26">
  <defs>
    <style>
      .cls-1 {
        fill: #fff;
        fill-rule: evenodd;
      }
    </style>
  </defs>
  <path class="cls-1" d="M1138.6,43.7a4.637,4.637,0,0,0-3.68,1.814l-7.14-3.99a4.865,4.865,0,0,0,.26-1.533,4.634,4.634,0,0,0-.27-1.539l7.14-3.984a4.583,4.583,0,1,0-.7-1.285l-7.13,3.984a4.645,4.645,0,1,0,.01,5.642l7.14,3.99a4.638,4.638,0,0,0,4.38,6.2A4.648,4.648,0,0,0,1138.6,43.7Zm0-15.241a3.191,3.191,0,1,1-3.19,3.191A3.193,3.193,0,0,1,1138.6,28.463Zm-15.2,14.723a3.191,3.191,0,1,1,3.19-3.191A3.193,3.193,0,0,1,1123.4,43.185Zm15.2,8.352a3.191,3.191,0,1,1,3.19-3.191A3.193,3.193,0,0,1,1138.6,51.537Z" transform="translate(-1118.75 -27)"/>
</svg>
