<svg xmlns="http://www.w3.org/2000/svg" width="230" height="201" viewBox="0 0 230 201">
  <defs>
    <style>
      .cls-1 {
        fill: #3cb64b;
        fill-rule: evenodd;
      }

      .cls-2 {
        font-size: 28.46px;
        fill: #fff;
        text-anchor: middle;
        font-family: Lato;
        font-weight: 700;
      }
    </style>
  </defs>
  <path class="cls-1" d="M908.4,277.254a2.584,2.584,0,0,1-2.482-1.872c-3.9-13.524-4.907-26.6-3.007-38.865a2.586,2.586,0,0,1,5.111.787,0.009,0.009,0,0,1,0,0c-1.792,11.511-.825,23.837,2.867,36.637a2.59,2.59,0,0,1-1.764,3.2A2.688,2.688,0,0,1,908.4,277.254Zm113.268,8.515a5.865,5.865,0,1,0,11.73,0,2.58,2.58,0,1,1,5.16,0,11.009,11.009,0,0,1-20.29,5.953c-10.97,26.37-30.354,48.947-50.989,58.892a13.118,13.118,0,0,1,2.188,19.908c11,2.261,19.018,8.481,20.51,16.255h9.526a2.589,2.589,0,0,1,2.585,2.584v20.054A2.589,2.589,0,0,1,999.505,412H921.88a2.589,2.589,0,0,1-2.584-2.584V389.378a2.589,2.589,0,0,1,2.584-2.584h8.892c1.453-7.611,9.125-13.711,19.719-16.1a13.15,13.15,0,0,1,2.058-20.083c-20.573-9.923-39.935-32.437-50.92-58.745a11.025,11.025,0,0,1-20.216-6.106,2.584,2.584,0,1,1,5.167,0,5.866,5.866,0,1,0,11.731.006c0-4.868-7.773-7.475-16.768-10.488C866.121,270.107,845,263.023,845,237.574A26.572,26.572,0,0,1,871.571,211h0a26.5,26.5,0,0,1,23.795,15.011c0.392-.87,2.68-0.978,3.634-1.012h122c1,0.033,3.2.2,3.57,1.131A26.5,26.5,0,0,1,1075,237.58h0c0,25.443-21.12,32.533-36.55,37.706C1029.43,278.294,1021.67,280.906,1021.67,285.769Zm-125.7-10.353a101.574,101.574,0,0,1-2.991-37.559,2.424,2.424,0,0,1-.062-0.305,21.378,21.378,0,1,0-42.756,0c0,21.728,17.525,27.608,33.021,32.793A90.273,90.273,0,0,1,895.965,275.416ZM996.922,391.95H924.463v14.864h72.464V391.95h0Zm-36.543-17.256c-11.968,0-22.286,5.315-24.423,12.083h48.851c-2.137-6.762-12.438-12.083-24.428-12.083h0Zm7.541-13.168a7.994,7.994,0,1,0-7.988,8,8.011,8.011,0,0,0,7.988-8h0ZM1021,229H899c-8.169,36.3,15.468,102.752,60.932,119.188C1005.37,331.764,1029.17,265.3,1021,229h0Zm2.85,46.524a82.491,82.491,0,0,1,12.94-5.145c15.48-5.191,33.02-11.077,33.02-32.793a21.38,21.38,0,0,0-42.76,0,2.664,2.664,0,0,1-.15.791,101.827,101.827,0,0,1-3.05,37.141v0.006Zm-110.8,5.156a2.64,2.64,0,0,0-3.445-1.44l-0.009,0a2.643,2.643,0,0,0,2.009,4.889l0.009,0a2.635,2.635,0,0,0,1.4-3.449h0.039Z" transform="translate(-845 -211)"/>
  <text id="EL" class="cls-2" transform="translate(114.238 84.852) scale(1.757)">EL</text>
</svg>
